<mxfile host="app.diagrams.net" modified="2021-11-25T04:44:16.339Z" agent="5.0 (Windows NT 6.3; Win64; x64) AppleWebKit/537.36 (KHTML, like Gecko) Chrome/96.0.4664.45 Safari/537.36" etag="LBg0TrxGj4z7u_zuGDa9" version="15.7.0" type="github">
  <diagram id="s4VGrTQf0zmznQmlyb4M" name="第1頁">
    <mxGraphModel dx="2969" dy="1815" grid="0" gridSize="10" guides="1" tooltips="1" connect="1" arrows="1" fold="1" page="1" pageScale="1" pageWidth="1169" pageHeight="827" math="0" shadow="0">
      <root>
        <mxCell id="0" />
        <mxCell id="1" parent="0" />
        <mxCell id="51Y_JJE3WGSCX0czTKx8-9" value="Shipping" style="swimlane;horizontal=0;fontSize=18;strokeColor=#7EA6E0;" vertex="1" parent="1">
          <mxGeometry x="-23" y="-564" width="940" height="140" as="geometry" />
        </mxCell>
        <mxCell id="51Y_JJE3WGSCX0czTKx8-27" value="Shipping Document" style="rounded=1;whiteSpace=wrap;html=1;fontSize=18;fillColor=#dae8fc;strokeColor=#6c8ebf;" vertex="1" parent="51Y_JJE3WGSCX0czTKx8-9">
          <mxGeometry x="86" y="43" width="190" height="60" as="geometry" />
        </mxCell>
        <mxCell id="51Y_JJE3WGSCX0czTKx8-10" value="Goods Receipting&#xa;Team (Clerk)" style="swimlane;horizontal=0;fontSize=18;strokeColor=#7EA6E0;startSize=45;" vertex="1" parent="1">
          <mxGeometry x="-44" y="57" width="1281" height="678" as="geometry" />
        </mxCell>
        <mxCell id="51Y_JJE3WGSCX0czTKx8-44" value="&lt;font style=&quot;font-size: 18px&quot;&gt;Check whether have COA&lt;/font&gt;" style="strokeWidth=2;html=1;shape=mxgraph.flowchart.decision;whiteSpace=wrap;rounded=0;sketch=0;" vertex="1" parent="51Y_JJE3WGSCX0czTKx8-10">
          <mxGeometry x="181" y="152" width="404" height="126" as="geometry" />
        </mxCell>
        <mxCell id="51Y_JJE3WGSCX0czTKx8-103" style="edgeStyle=orthogonalEdgeStyle;rounded=1;sketch=0;orthogonalLoop=1;jettySize=auto;html=1;endArrow=classic;endFill=1;strokeColor=#9933FF;" edge="1" parent="51Y_JJE3WGSCX0czTKx8-10" source="51Y_JJE3WGSCX0czTKx8-99" target="51Y_JJE3WGSCX0czTKx8-44">
          <mxGeometry relative="1" as="geometry" />
        </mxCell>
        <mxCell id="51Y_JJE3WGSCX0czTKx8-99" value="&lt;font style=&quot;font-size: 18px&quot;&gt;Check COA&lt;/font&gt;" style="shape=step;perimeter=stepPerimeter;whiteSpace=wrap;html=1;fixedSize=1;rounded=0;sketch=0;strokeColor=#7EA6E0;" vertex="1" parent="51Y_JJE3WGSCX0czTKx8-10">
          <mxGeometry x="197" y="41" width="372" height="77" as="geometry" />
        </mxCell>
        <mxCell id="51Y_JJE3WGSCX0czTKx8-12" value="System" style="swimlane;horizontal=0;fontSize=18;strokeColor=#7EA6E0;" vertex="1" parent="1">
          <mxGeometry x="-31" y="-160" width="1287" height="177" as="geometry" />
        </mxCell>
        <mxCell id="51Y_JJE3WGSCX0czTKx8-14" value="eZConnect&lt;br&gt;(part of principal)" style="rounded=1;whiteSpace=wrap;html=1;fontSize=18;fillColor=#dae8fc;strokeColor=#6c8ebf;" vertex="1" parent="51Y_JJE3WGSCX0czTKx8-12">
          <mxGeometry x="47" y="50" width="162" height="60" as="geometry" />
        </mxCell>
        <mxCell id="51Y_JJE3WGSCX0czTKx8-15" value="email" style="rounded=1;whiteSpace=wrap;html=1;fontSize=18;fillColor=#dae8fc;strokeColor=#6c8ebf;" vertex="1" parent="51Y_JJE3WGSCX0czTKx8-12">
          <mxGeometry x="232" y="50" width="124" height="60" as="geometry" />
        </mxCell>
        <mxCell id="51Y_JJE3WGSCX0czTKx8-52" value="COA website" style="rounded=1;whiteSpace=wrap;html=1;fontSize=18;fillColor=#dae8fc;strokeColor=#6c8ebf;" vertex="1" parent="51Y_JJE3WGSCX0czTKx8-12">
          <mxGeometry x="379" y="46" width="140" height="68" as="geometry" />
        </mxCell>
        <mxCell id="51Y_JJE3WGSCX0czTKx8-54" value="" style="strokeWidth=2;html=1;shape=mxgraph.flowchart.annotation_2;align=left;labelPosition=right;pointerEvents=1;rounded=0;sketch=0;direction=north;" vertex="1" parent="51Y_JJE3WGSCX0czTKx8-12">
          <mxGeometry x="168" y="110" width="100" height="50" as="geometry" />
        </mxCell>
        <mxCell id="51Y_JJE3WGSCX0czTKx8-62" value="" style="endArrow=classic;startArrow=classic;html=1;rounded=1;sketch=0;strokeColor=#9933FF;" edge="1" parent="51Y_JJE3WGSCX0czTKx8-12">
          <mxGeometry width="50" height="50" relative="1" as="geometry">
            <mxPoint x="318" y="253" as="sourcePoint" />
            <mxPoint x="418" y="114" as="targetPoint" />
          </mxGeometry>
        </mxCell>
        <mxCell id="51Y_JJE3WGSCX0czTKx8-68" value="email" style="rounded=1;whiteSpace=wrap;html=1;fontSize=18;fillColor=#dae8fc;strokeColor=#6c8ebf;" vertex="1" parent="51Y_JJE3WGSCX0czTKx8-12">
          <mxGeometry x="550" y="46" width="124" height="56" as="geometry" />
        </mxCell>
        <mxCell id="51Y_JJE3WGSCX0czTKx8-23" value="Principal Service&#xa;Team" style="swimlane;horizontal=0;fontSize=18;strokeColor=#7EA6E0;startSize=55;" vertex="1" parent="1">
          <mxGeometry x="-37" y="-382" width="1262" height="172" as="geometry" />
        </mxCell>
        <mxCell id="51Y_JJE3WGSCX0czTKx8-30" value="Packing List for Devanning" style="rounded=1;whiteSpace=wrap;html=1;fontSize=18;fillColor=#dae8fc;strokeColor=#6c8ebf;" vertex="1" parent="51Y_JJE3WGSCX0czTKx8-23">
          <mxGeometry x="99" y="31" width="190" height="60" as="geometry" />
        </mxCell>
        <mxCell id="51Y_JJE3WGSCX0czTKx8-66" value="Upload COA" style="rounded=1;whiteSpace=wrap;html=1;fontSize=18;fillColor=#dae8fc;strokeColor=#6c8ebf;" vertex="1" parent="51Y_JJE3WGSCX0czTKx8-23">
          <mxGeometry x="466" y="42" width="183" height="60" as="geometry" />
        </mxCell>
        <mxCell id="51Y_JJE3WGSCX0czTKx8-75" value="" style="endArrow=classic;startArrow=classic;html=1;rounded=1;sketch=0;strokeColor=#9933FF;" edge="1" parent="51Y_JJE3WGSCX0czTKx8-23">
          <mxGeometry width="50" height="50" relative="1" as="geometry">
            <mxPoint x="601" y="264" as="sourcePoint" />
            <mxPoint x="601" y="105" as="targetPoint" />
          </mxGeometry>
        </mxCell>
        <mxCell id="51Y_JJE3WGSCX0czTKx8-25" value="Goods Receipting&#xa;Team (Labour)" style="swimlane;horizontal=0;fontSize=18;strokeColor=#7EA6E0;startSize=45;" vertex="1" parent="1">
          <mxGeometry x="-28" y="769" width="1280" height="180" as="geometry" />
        </mxCell>
        <mxCell id="51Y_JJE3WGSCX0czTKx8-31" style="edgeStyle=orthogonalEdgeStyle;curved=0;rounded=1;sketch=0;orthogonalLoop=1;jettySize=auto;html=1;endArrow=classic;endFill=1;strokeColor=#9933FF;" edge="1" parent="1" source="51Y_JJE3WGSCX0czTKx8-27">
          <mxGeometry relative="1" as="geometry">
            <mxPoint x="159.42857142857156" y="-344.2857142857142" as="targetPoint" />
          </mxGeometry>
        </mxCell>
        <mxCell id="51Y_JJE3WGSCX0czTKx8-32" style="edgeStyle=orthogonalEdgeStyle;curved=0;rounded=1;sketch=0;orthogonalLoop=1;jettySize=auto;html=1;entryX=0.5;entryY=0;entryDx=0;entryDy=0;endArrow=classic;endFill=1;strokeColor=#9933FF;" edge="1" parent="1" source="51Y_JJE3WGSCX0czTKx8-30" target="51Y_JJE3WGSCX0czTKx8-14">
          <mxGeometry relative="1" as="geometry" />
        </mxCell>
        <mxCell id="51Y_JJE3WGSCX0czTKx8-33" style="edgeStyle=orthogonalEdgeStyle;curved=0;rounded=1;sketch=0;orthogonalLoop=1;jettySize=auto;html=1;entryX=0.5;entryY=0;entryDx=0;entryDy=0;endArrow=classic;endFill=1;strokeColor=#9933FF;" edge="1" parent="1" source="51Y_JJE3WGSCX0czTKx8-30" target="51Y_JJE3WGSCX0czTKx8-15">
          <mxGeometry relative="1" as="geometry" />
        </mxCell>
        <mxCell id="51Y_JJE3WGSCX0czTKx8-36" value="Putaway Team" style="swimlane;horizontal=0;fontSize=18;strokeColor=#7EA6E0;startSize=45;" vertex="1" parent="1">
          <mxGeometry x="-24" y="1209" width="950" height="180" as="geometry" />
        </mxCell>
        <mxCell id="51Y_JJE3WGSCX0czTKx8-37" value="&lt;p class=&quot;MsoListParagraph&quot; style=&quot;text-indent: -0.25in&quot;&gt;&lt;span lang=&quot;ZH-TW&quot; style=&quot;font-size: 12.0pt ; line-height: 107% ; font-family: &amp;#34;pmingliu&amp;#34; , serif&quot;&gt;列印收貨文件&lt;/span&gt;&lt;/p&gt;" style="rounded=1;whiteSpace=wrap;html=1;fontSize=18;fillColor=#d5e8d4;strokeColor=#82b366;" vertex="1" parent="51Y_JJE3WGSCX0czTKx8-36">
          <mxGeometry x="130" y="40" width="190" height="40" as="geometry" />
        </mxCell>
        <mxCell id="51Y_JJE3WGSCX0czTKx8-58" style="edgeStyle=orthogonalEdgeStyle;curved=0;rounded=1;sketch=0;orthogonalLoop=1;jettySize=auto;html=1;endArrow=classic;endFill=1;strokeColor=#9933FF;" edge="1" parent="1" source="51Y_JJE3WGSCX0czTKx8-54">
          <mxGeometry relative="1" as="geometry">
            <mxPoint x="219" y="96" as="targetPoint" />
          </mxGeometry>
        </mxCell>
        <mxCell id="51Y_JJE3WGSCX0czTKx8-98" style="edgeStyle=orthogonalEdgeStyle;rounded=1;sketch=0;orthogonalLoop=1;jettySize=auto;html=1;endArrow=classic;endFill=1;strokeColor=#9933FF;" edge="1" parent="1" source="51Y_JJE3WGSCX0czTKx8-66">
          <mxGeometry relative="1" as="geometry">
            <mxPoint x="443.7142857142858" y="-116.85714285714266" as="targetPoint" />
          </mxGeometry>
        </mxCell>
        <mxCell id="51Y_JJE3WGSCX0czTKx8-102" style="edgeStyle=orthogonalEdgeStyle;rounded=1;sketch=0;orthogonalLoop=1;jettySize=auto;html=1;endArrow=classic;endFill=1;strokeColor=#9933FF;exitX=0.835;exitY=0.311;exitDx=0;exitDy=0;exitPerimeter=0;" edge="1" parent="1" source="51Y_JJE3WGSCX0czTKx8-44">
          <mxGeometry relative="1" as="geometry">
            <mxPoint x="581" y="-55" as="targetPoint" />
            <Array as="points">
              <mxPoint x="581" y="248" />
            </Array>
          </mxGeometry>
        </mxCell>
      </root>
    </mxGraphModel>
  </diagram>
</mxfile>
